# xmcd
#
# Track frame offsets: 
#        183
#        3750
#        21123
#        31465
#        43710
#        63940
#        80415
#        99538
#        112225
#        122178
#        130875
#        144783
#        153208
#        163478
#        165068
#        179343
#        199128
#        213405
#        219120
#        228698
#        238428
#        260578
#        276118
#        291515
#        293588
#        315140
#        317630
#
# Disc length: 4406 seconds
#
# Revision: 1
# Processed by: cddbd v1.5.2PL0 Copyright (c) Steve Scherf et al.
# Submitted via: ExactAudioCopy v0.95b4
#
DISCID=8211341b
DTITLE=Bayer, Roland - Die lasterhaften Balladen.......
DYEAR=1993
DGENRE=A capella
TTITLE0=Rondell
TTITLE1=Die Ballade vom angenehmen Leben auf dieser Welt
TTITLE2=Eine Ballade, mit der Meister Villon seine Mitmenschen um Verz
TTITLE2=eihung bittet
TTITLE3=Die Ballade von Villon und seiner dicken Margot
TTITLE4=Die Klage einer schönen Frau aus dem "Goldenen Helm"
TTITLE5=Guter Ratschlag an die im "Goldenen Helm" noch tätigen Mädchen
TTITLE6=Die Ballade von einem netten kleinen Barbier
TTITLE7=Eine nette Ballade, die Villon dem König aus der Verbannung sa
TTITLE7=ndte
TTITLE8=Die Ballade von den Vogelfreien
TTITLE9=Kleines Testament 1-14
TTITLE10=Die Ballade an eine treulose Freundin
TTITLE11=Kleines Testament 5-7 und Großes Testament 59
TTITLE12=Eine kleine Liebesballade
TTITLE13=Vierzeiler, den Villon seiner kleinen Margot schrieb
TTITLE14=Die Ballade von der ewigen Unzufriedenheit
TTITLE15=Kleines Testament 8, 10-13
TTITLE16=Eine verliebte Ballade für ein Mädchen Yssabeau
TTITLE17=Kleines Testament 26-34, 38
TTITLE18=Eine Ballade von den schönen Frauen in Paris
TTITLE19=Eine Bettelballade für meinen armen Bruder Jean Cotart
TTITLE20=Eine Räuberballade von den drei Coquillards
TTITLE21=Großes Testament 1-3, 10-11, 17, 22
TTITLE22=Die Ballade von der schönen Stadt Morah
TTITLE23=Vierzeiler, den Villon nach der Verkündigung des Todesurteils
TTITLE23=schrieb
TTITLE24=Die Ballade von den Galgenbrüdern
TTITLE25=Eine kleine Zugabe stiftet Villon zum Abgewöhnen
TTITLE26=Die Ballade von den Lästerzungen
EXTD=
EXTT0=
EXTT1=
EXTT2=
EXTT3=
EXTT4=
EXTT5=
EXTT6=
EXTT7=
EXTT8=
EXTT9=
EXTT10=
EXTT11=
EXTT12=
EXTT13=
EXTT14=
EXTT15=
EXTT16=
EXTT17=
EXTT18=
EXTT19=
EXTT20=
EXTT21=
EXTT22=
EXTT23=
EXTT24=
EXTT25=
EXTT26=
PLAYORDER=
